<svg width="46" height="46" viewBox="0 0 60 60" fill="none" xmlns="http://www.w3.org/2000/svg">
  <path
    d="M15.5945 46.9879L22.8442 46.9231L22.7363 34.8402C22.7302 34.1555 22.9566 33.5795 23.4157 33.1122C23.8747 32.6449 24.4466 32.4082 25.1313 32.4021L34.7975 32.3157C35.4822 32.3096 36.0582 32.536 36.5255 32.9951C36.9929 33.4541 37.2296 34.026 37.2357 34.7107L37.3437 46.7935L44.5934 46.7287L44.399 24.9796L29.8024 14.2346L15.4002 25.2387L15.5945 46.9879ZM10.7614 47.0311L10.5671 25.2819C10.5602 24.5167 10.7249 23.7902 11.0611 23.1024C11.3974 22.4147 11.8656 21.8466 12.4658 21.3981L26.868 10.394C27.7081 9.74204 28.6718 9.41119 29.7593 9.40147C30.8467 9.39176 31.8162 9.70533 32.6678 10.3422L47.2644 21.0872C47.8725 21.5248 48.3508 22.0845 48.6992 22.7661C49.0477 23.4477 49.2253 24.1712 49.2322 24.9364L49.4265 46.6856C49.4384 48.0147 48.9753 49.1567 48.0373 50.1117C47.0992 51.0666 45.9657 51.55 44.6366 51.5619L34.9703 51.6483C34.2856 51.6544 33.7096 51.4279 33.2423 50.9689C32.7749 50.5098 32.5382 49.938 32.5321 49.2533L32.4241 37.1704L27.591 37.2136L27.699 49.2965C27.7051 49.9812 27.4786 50.5572 27.0196 51.0245C26.5606 51.4918 25.9887 51.7285 25.304 51.7346L15.6377 51.821C14.3086 51.8329 13.1666 51.3698 12.2116 50.4318C11.2567 49.4937 10.7733 48.3602 10.7614 47.0311Z"
    fill="white" />
</svg>